<?xml version="1.0" encoding="UTF-8" standalone="no"?>
<!DOCTYPE svg PUBLIC "-//W3C//DTD SVG 1.1//EN" "http://www.w3.org/Graphics/SVG/1.1/DTD/svg11.dtd">
<svg width="100%" height="100%" viewBox="0 0 1847 922" version="1.1" xmlns="http://www.w3.org/2000/svg" xmlns:xlink="http://www.w3.org/1999/xlink" xml:space="preserve" xmlns:serif="http://www.serif.com/" style="fill-rule:evenodd;clip-rule:evenodd;stroke-linejoin:round;stroke-miterlimit:2;">
    <g transform="matrix(1,0,0,1,-102,-368.967698)">
        <path d="M989,884L976,1284L1052,1284L1034,1085L1118,1085L1183,1283L1262,1281L1150,1082C1150,1082 1188.167,1072.833 1203,1066C1216.269,1059.887 1230.5,1048.669 1239,1041C1245.39,1035.234 1250.02,1027.615 1254,1019.984C1258,1012.314 1261,1003.148 1263,994.984C1264.917,987.158 1266.483,979.042 1266,971C1265.5,962.669 1263.247,953.28 1260,945C1256.667,936.5 1251.333,927 1246,920C1240.998,913.435 1234.695,907.826 1228,903C1220.833,897.833 1211.667,893 1203,889C1194.333,885 1185.276,881.464 1176,879C1165.333,876.167 1151.505,873.087 1139,872C1123.667,870.667 1100.667,870.5 1084,871C1068.948,871.452 1053.92,872.958 1039,875C1023.167,877.167 989,884 989,884ZM1025,914L1032,1048C1032,1048 1078.833,1052 1097,1051C1111.948,1050.177 1127.667,1048.5 1141,1042C1154.333,1035.5 1169.5,1024.5 1177,1012C1184.5,999.5 1187.167,979.667 1186,967C1184.933,955.421 1178.376,944.066 1170,936C1161,927.333 1141.667,919 1132,915C1125.771,912.422 1118.735,912.285 1112,912C1100.167,911.5 1075.5,911.667 1061,912C1048.985,912.276 1025,914 1025,914Z" style="fill:rgb(235,235,235);"/>
        <path d="M602,794C602,794 597,859.5 595,888C593.199,913.658 591.463,939.321 590,965C588.5,991.333 586.667,1019.833 586,1046C585.355,1071.325 584.167,1099.5 586,1122C587.625,1141.939 591.333,1162.5 597,1181C602.551,1199.122 610.5,1219 620,1233C628.739,1245.878 641.833,1256.5 654,1265C665.854,1273.282 679.5,1279.833 693,1284C706.5,1288.167 721.167,1290.333 735,1290C748.833,1289.667 763.333,1287 776,1282C788.667,1277 800.774,1269.237 811,1260C821.333,1250.667 831.242,1238.797 838,1226C845.833,1211.167 853.167,1188.833 858,1171C862.602,1154.022 865.116,1136.49 867,1119C869.333,1097.333 871.07,1067.037 872,1041C873,1013 872.833,974.5 873,951C873.121,934 873,900 873,900C873,900 818.833,845.5 806,834C803.408,831.678 799,831.5 796,831C793.37,830.562 788,831 788,831C788,831 800.711,869.46 806,889C812,911.167 819.667,942.833 824,964C827.517,981.181 830.634,998.516 832,1016C833.667,1037.333 834.667,1071 834,1092C833.467,1108.778 830.833,1126.833 828,1142C825.402,1155.909 821,1172 817,1183C813.79,1191.827 809.167,1200.167 804,1208C798.833,1215.833 793.167,1224.167 786,1230C778.833,1235.833 761,1243 761,1243C761,1243 745.667,1245.833 738,1246C730.333,1246.167 722.527,1245.602 715,1244C707.167,1242.333 698.476,1239.901 691,1236C683.333,1232 675.412,1226.412 669,1220C662,1213 654.167,1203.5 649,1194C643.833,1184.5 640.477,1173.681 638,1163C635.333,1151.5 633.408,1137.769 633,1125C632.5,1109.333 633.626,1087.628 635,1069C636.5,1048.667 638.807,1024.892 642,1003C646.667,971 656.333,913.5 663,877C668.685,845.875 682,784 682,784C682,784 671.5,774.5 666,772C660.762,769.619 654.746,768.689 649,769C642.833,769.333 635,771.5 629,774C623.194,776.419 617.5,780.667 613,784C609.018,786.95 602,794 602,794Z" style="fill:rgb(235,235,235);"/>
        <path d="M307,702C307,702 290.5,699.667 285,700C280.98,700.244 276.516,700.855 274,704C270.667,708.167 267.059,716.985 265,724C236.333,821.667 102,1290 102,1290L183,1287L223,1097L428,1094L418,1286L469,1286L496,817L438,782L428,1061L228,1064L307,702Z" style="fill:rgb(235,235,235);"/>
        <path d="M1311,850L1323,1281L1376,1281L1372,1095L1548,1279L1611,1279L1651,1081L1808,1078L1852,1277L1949,1277L1772,709C1772,709 1769.909,704.955 1768,704C1766,703 1762.687,703 1760,703C1757.167,703 1753.864,703.045 1751,704C1745.5,705.833 1734.7,710.022 1727,714C1717,719.167 1691,735 1691,735L1570,1248L1391,1063L1584,756L1556,756C1556,756 1553.165,756.272 1552,757C1550.667,757.833 1549.089,759.46 1548,761C1517.833,803.667 1371,1013 1371,1013L1372,829.5L1361,829.5C1361,829.5 1351.571,831.503 1347,833C1342.167,834.583 1336.87,836.701 1332,839C1326,841.833 1311,850 1311,850ZM1731,746L1657,1048L1802,1044L1731,746Z" style="fill:rgb(235,235,235);"/>
        <path d="M728,975C728,975 723.667,776.5 724,736C724.02,733.596 728.167,732.667 730,732C731.566,731.43 733.342,731.834 735,732C736.667,732.167 738.5,732.333 740,733C741.5,733.667 743,734.833 744,736C744.97,737.132 746.1,738.513 746,740C743.333,779.833 728,975 728,975Z" style="fill:rgb(235,235,235);"/>
        <path d="M734,670C731.164,670.5 726.815,671.667 723.982,673C721.392,674.219 718.94,675.895 717,678C715.003,680.167 713.167,683.167 712,686C710.833,688.833 710.322,691.944 710,695C709.667,698.167 709.5,701.833 710,705C710.493,708.124 712,711.333 713,714C713.891,716.377 714.524,718.934 716,721C717.667,723.333 720.667,727.5 723,728C725.333,728.5 728.167,724.667 730,724C731.253,723.544 732.671,723.889 734,724C736,724.167 739.667,724 742,725C744.333,726 745.474,730.631 748,730C750.667,729.333 755.405,724.657 758,721C761.667,715.833 766.333,703.833 770,699C772.459,695.758 776.182,693.407 780,692C789.5,688.5 813.5,681.5 827,678C838.201,675.096 851.667,672.167 861,671C868.277,670.09 875.879,669.249 883,671C893.167,673.5 910.167,681.833 922,686C932.541,689.712 944,693.667 954,696C963.181,698.142 973.5,699 982,700C989.643,700.899 997.309,701.739 1005,702C1014.833,702.333 1029.015,702.607 1041,702C1054.167,701.333 1084,698 1084,698L1249,861L1257,861L1257,858L1096,696C1096,696 1114.667,692.833 1123,691C1130.738,689.298 1141.5,688.333 1146,685C1149.9,682.111 1149.379,675.814 1150,671C1150.667,665.833 1150,654 1150,654L1474,795L1482,789L1148,642C1148,642 1146.316,631.264 1145,626C1143.667,620.667 1141.975,615.227 1140,610C1137.167,602.5 1132.333,588.833 1128,581C1124.321,574.349 1114,563 1114,563C1114,563 1107.732,572.646 1104,577C1100,581.667 1094.667,586.667 1090,591C1085.496,595.182 1080.956,599.365 1076,603C1071,606.667 1065.5,610 1060,613C1054.502,615.999 1048.781,618.591 1043,621C1037,623.5 1030.508,626.21 1024,628C1017.333,629.833 1010.051,630.972 1003,632C995,633.167 983.167,634.667 976,635C970.662,635.248 965.307,634.624 960,634C954.333,633.333 947.917,632.409 942,631C935,629.333 924.5,626.167 918,624C912.891,622.297 905.667,619.667 903,618C901.835,617.272 901.333,614.833 902,614C902.667,613.167 905.337,612.65 907,613C910.167,613.667 916.5,616.667 921,618C925.264,619.263 929.662,620.02 934,621C939.167,622.167 946.333,624.167 952,625C957.287,625.777 962.658,625.847 968,626C973.833,626.167 980.675,626.333 987,626C993.333,625.667 999.78,625.368 1006,624C1014.333,622.167 1027.5,618.5 1037,615C1045.957,611.7 1055.833,607.333 1063,603C1069.282,599.202 1074.667,593.833 1080,589C1085.24,584.252 1090.5,579.167 1095,574C1099.379,568.973 1103,563.333 1107,558C1111,552.667 1114.667,546.667 1119,542C1123.182,537.496 1128.167,533.5 1133,530C1137.723,526.58 1143.333,523.5 1148,521C1152.207,518.746 1157.667,517 1161,515C1163.635,513.419 1166.667,511 1168,509C1169.125,507.313 1169,505 1169,503C1169,501 1169,498.667 1168,497C1167,495.333 1164.97,493.821 1163,493C1161,492.167 1158.353,492.138 1156,492C1153.167,491.833 1149.274,491.376 1146,492C1142.5,492.667 1138.611,494.523 1135,496C1131.333,497.5 1127.562,499.12 1124,501C1118,504.167 1105.667,511 1099,515C1093.847,518.092 1088.975,521.63 1084,525C1078.833,528.5 1073.333,532.333 1068,536C1062.667,539.667 1057,543.5 1052,547C1047.302,550.289 1042.333,554 1038,557C1034.047,559.736 1030,562.333 1026,565C1021.5,568 1015.333,572.5 1011,575C1007.511,577.013 1002.667,579 1000,580C998.409,580.597 996.167,581.333 995,581C993.844,580.67 993.167,579.167 993,578C992.833,576.833 992.966,574.905 994,574C995.333,572.833 998.7,572.074 1001,571C1003.5,569.833 1006.411,568.479 1009,567C1012.5,565 1018.167,561.5 1022,559C1025.408,556.777 1028.689,554.365 1032,552C1035.5,549.5 1039.278,546.589 1043,544C1046.833,541.333 1051,538.667 1055,536C1059,533.333 1063.167,530.667 1067,528C1070.722,525.411 1074.228,522.515 1078,520C1082,517.333 1086.833,514.667 1091,512C1095.049,509.409 1099.333,506.333 1103,504C1106.28,501.913 1109.587,499.861 1113,498C1116.667,496 1121.167,494.167 1125,492C1128.784,489.861 1132.409,487.448 1136,485C1139.667,482.5 1143.43,479.794 1147,477C1150.833,474 1155.833,470 1159,467C1161.572,464.563 1163.848,461.815 1166,459C1168.167,456.167 1171,452.5 1172,450C1172.743,448.143 1172.667,445.167 1172,444C1171.333,442.833 1169.374,443 1168,443C1166,443 1162.563,443.191 1160,444C1156.833,445 1152.465,446.947 1149,449C1144.5,451.667 1138.288,456.268 1133,460C1127.333,464 1121.076,468.773 1115,473C1107.333,478.333 1096.457,485.853 1087,492C1073.667,500.667 1044.833,518.833 1035,525C1032.723,526.428 1029.667,528.5 1028,529C1026.99,529.303 1025.667,528.667 1025,528C1024.333,527.333 1023.529,525.943 1024,525C1024.667,523.667 1027.05,521.324 1029,520C1037.833,514 1064.5,497 1077,489C1085.958,483.267 1096,477.333 1104,472C1111.158,467.228 1118.342,462.447 1125,457C1132.333,451 1142.167,442.167 1148,436C1152.581,431.157 1157.5,424.5 1160,420C1161.846,416.678 1163,411.833 1163,409C1163,406.764 1161.5,404.167 1160,403C1158.5,401.833 1155.983,401.575 1154,402C1151.667,402.5 1148.407,404.241 1146,406C1141.667,409.167 1134,416 1128,421C1122,426 1115,431.667 1110,436C1105.899,439.554 1101.167,444.333 1098,447C1095.807,448.847 1092.833,451.333 1091,452C1089.708,452.47 1087.667,451.833 1087,451C1086.333,450.167 1086.284,448.125 1087,447C1088.167,445.167 1091.631,442.297 1094,440C1099.674,434.5 1114.711,420.833 1121.044,414C1125.253,409.459 1129.007,403.167 1132,399C1134.374,395.695 1137.167,392.333 1139,389C1140.73,385.854 1142.333,381.667 1143,379C1143.485,377.06 1143.333,374.5 1143,373C1142.739,371.827 1142.043,370.596 1141,370C1139.833,369.333 1137.5,368.833 1136,369C1134.518,369.165 1133.206,370.123 1132,371C1130.167,372.333 1127.173,374.827 1125,377C1121.333,380.667 1115,387.833 1110,393C1105.083,398.081 1100.302,403.322 1095,408C1089.333,413 1082.667,418.454 1076,423C1068.667,428 1059.525,433.335 1051,438C1042.167,442.833 1032.167,447.014 1023,452C1013.5,457.167 1002.5,463.5 994,469C986.387,473.926 978.167,479.833 972,485C966.58,489.541 961.602,494.631 957,500C952,505.833 946,513 942,520C938.069,526.879 935.667,535.167 933,542C930.546,548.288 928.454,554.712 926,561C923.333,567.833 919.833,577 917,583C914.705,587.86 911.5,593.333 909,597C907.004,599.928 904.333,602.667 902,605C899.827,607.173 897.511,609.228 895,611C892.167,613 888.519,615.348 885,617C876.833,620.833 856.167,629.667 846,634C838.711,637.107 831.323,639.975 824,643C816.333,646.167 808.011,649.694 800,653C789.5,657.333 770.833,666.167 761,669C754.586,670.848 745.5,669.833 741,670C738.668,670.086 736.298,669.595 734,670ZM732,693C733.333,693 735.028,693.028 736,694C737,695 738,697.205 738,699C738,700.833 737,703.667 736,705C735.106,706.193 733.483,707.148 732,707C730.333,706.833 727.167,705.5 726,704C724.833,702.5 724.667,699.667 725,698C725.327,696.366 726.833,694.833 728,694C729.118,693.201 730.667,693 732,693Z" style="fill:rgb(235,235,235);"/>
    </g>
</svg>
